<?xml version="1.0" encoding="UTF-8"?>
<!DOCTYPE svg PUBLIC "-//W3C//DTD SVG 1.1//EN" "http://www.w3.org/Graphics/SVG/1.1/DTD/svg11.dtd">
<!-- Creator: CorelDRAW 2021 (64-Bit) -->
<svg xmlns="http://www.w3.org/2000/svg" xml:space="preserve" width="53px" height="75px" version="1.1" style="shape-rendering:geometricPrecision; text-rendering:geometricPrecision; image-rendering:optimizeQuality; fill-rule:evenodd; clip-rule:evenodd"
viewBox="0 0 53 75.2"
 xmlns:xlink="http://www.w3.org/1999/xlink"
 xmlns:xodm="http://www.corel.com/coreldraw/odm/2003">
 <defs>
  <style type="text/css">
   <![CDATA[
    .str0 {stroke:#339966;stroke-width:0.3;stroke-miterlimit:22.9256}
    .str1 {stroke:#006633;stroke-width:0.06;stroke-miterlimit:22.9256}
    .fil0 {fill:#33CC99}
    .fil1 {fill:white}
   ]]>
  </style>
 </defs>
 <g id="Слой_x0020_1">
  <metadata id="CorelCorpID_0Corel-Layer"/>
  <path class="fil0 str0" d="M26.44 53.63c2.47,0 4.47,2 4.47,4.47 0,2.47 -2,4.47 -4.47,4.47 -2.47,0 -4.48,-2 -4.48,-4.47 0,-2.47 2.01,-4.47 4.48,-4.47zm-17.63 -10.22c2.47,0 4.48,2 4.48,4.47 0,2.47 -2.01,4.48 -4.48,4.48 -2.47,0 -4.47,-2.01 -4.47,-4.48 0,-2.47 2,-4.47 4.47,-4.47zm0 -20.72c2.47,0 4.48,2 4.48,4.47 0,2.48 -2.01,4.48 -4.48,4.48 -2.47,0 -4.47,-2 -4.47,-4.48 0,-2.47 2,-4.47 4.47,-4.47zm0.1 -1.23c1.9,0 3.59,0.94 4.62,2.37l5.25 -3.12c0.27,-0.16 0.63,-0.07 0.79,0.2 0.16,0.27 0.07,0.62 -0.2,0.79l-5.27 3.12c0.32,0.71 0.5,1.5 0.5,2.33 0,2.95 -2.25,5.38 -5.13,5.66l0 9.4c2.88,0.28 5.13,2.71 5.13,5.66 0,0.82 -0.18,1.6 -0.49,2.3l7.83 4.55c1.04,-1.41 2.71,-2.32 4.59,-2.32 3.15,0 5.69,2.54 5.69,5.69 0,3.14 -2.54,5.69 -5.69,5.69 -3.14,0 -5.69,-2.55 -5.69,-5.69 0,-0.85 0.19,-1.65 0.52,-2.37l-7.84 -4.51c-1.04,1.42 -2.72,2.35 -4.61,2.35 -3.14,0 -5.69,-2.55 -5.69,-5.69 0,-2.95 2.24,-5.37 5.1,-5.66l0 -9.4c-2.86,-0.29 -5.1,-2.71 -5.1,-5.66 0,-3.14 2.55,-5.69 5.69,-5.69z"/>
  <path class="fil0 str0" d="M43.93 52.51c-2.47,0 -4.47,-2.01 -4.47,-4.48 0,-2.47 2,-4.47 4.47,-4.47 2.47,0 4.47,2 4.47,4.47 0,2.47 -2,4.48 -4.47,4.48zm0 -20.72c-2.47,0 -4.47,-2.01 -4.47,-4.48 0,-2.47 2,-4.47 4.47,-4.47 2.47,0 4.47,2 4.47,4.47 0,2.47 -2,4.48 -4.47,4.48zm-17.63 -10.22c-2.47,0 -4.47,-2 -4.47,-4.47 0,-2.47 2,-4.48 4.47,-4.48 2.47,0 4.48,2.01 4.48,4.48 0,2.47 -2.01,4.47 -4.48,4.47zm17.63 32.15c-1.9,0 -3.59,-0.93 -4.62,-2.37l-5.26 3.12c-0.27,0.17 -0.62,0.08 -0.78,-0.2 -0.16,-0.27 -0.07,-0.62 0.2,-0.78l5.27 -3.13c-0.32,-0.71 -0.5,-1.5 -0.5,-2.33 0,-2.95 2.25,-5.38 5.13,-5.66l0 -9.39c-2.88,-0.29 -5.13,-2.71 -5.13,-5.67 0,-0.82 0.17,-1.59 0.48,-2.3l-7.83 -4.55c-1.03,1.41 -2.7,2.33 -4.59,2.33 -3.14,0 -5.69,-2.55 -5.69,-5.69 0,-3.14 2.55,-5.69 5.69,-5.69 3.15,0 5.69,2.55 5.69,5.69 0,0.84 -0.18,1.64 -0.51,2.37l7.84 4.51c1.03,-1.43 2.71,-2.36 4.61,-2.36 3.14,0 5.69,2.55 5.69,5.69 0,2.95 -2.24,5.37 -5.11,5.66l0 9.4c2.87,0.29 5.11,2.72 5.11,5.66 0,3.15 -2.55,5.69 -5.69,5.69z"/>
  <path class="fil1 str1" d="M25.32 18.41l0.22 0c0.02,-0.03 0.12,-0.24 0.13,-0.26 0,-0.02 0,-0.41 0,-0.41 -0.02,-0.01 -0.02,0 -0.07,0.11 -0.06,0.13 -0.11,0.27 -0.17,0.39 -0.05,-0.04 -0.3,-0.37 -0.37,-0.46 -0.03,-0.04 -0.02,-0.04 -0.08,-0.04l0.34 0.67zm-1.69 0.26l-0.04 -0.33c-0.02,-0.2 -0.01,-0.51 0.02,-0.71 0,-0.03 0.03,-0.13 0.01,-0.14 -0.04,-0.03 -0.12,0.02 -0.14,0.03 -0.1,0.07 -0.1,0.13 -0.1,0.27 0,0.12 -0.01,0.67 0.01,0.73 0.04,0.09 0.12,0.15 0.24,0.15zm2.06 -1.9l1.19 0c-0.01,-0.09 -0.02,-0.14 -0.07,-0.18 -0.05,-0.06 -0.08,-0.07 -0.18,-0.07l-0.7 0c-0.14,0 -0.25,0.09 -0.24,0.25zm0.04 1.64l0.1 0 0 -0.49c0,-0.08 0,-0.07 0.08,-0.07l0.27 0c0.12,0 0.23,0.02 0.21,0.15 -0.03,0.2 -0.48,0.05 -0.51,0.13 -0.01,0.02 0,0.07 0,0.09l0.29 0 0.07 0.19 0.28 0c-0.04,-0.06 -0.14,-0.13 -0.19,-0.2 0.03,-0.03 0.14,-0.04 0.17,-0.16 0.04,-0.12 -0.01,-0.22 -0.08,-0.26 -0.13,-0.09 -0.49,-0.06 -0.69,-0.05l0 0.67zm3.23 0.25c0.05,0.02 0.29,0.01 0.29,-0.23 0,-0.15 0.02,-0.74 -0.01,-0.81 -0.02,-0.06 -0.07,-0.1 -0.13,-0.12 -0.03,-0.02 -0.06,-0.02 -0.1,-0.02 -0.06,0 -0.06,0 -0.05,0.05 0.02,0.08 0.03,0.15 0.03,0.23 0.01,0.17 0.02,0.52 0,0.7 -0.01,0.04 -0.04,0.18 -0.03,0.2zm-5.1 -2.45c0.03,0.03 0,-0.02 0.08,0.04 0.01,0.1 -0.04,0.11 -0.06,0.17 0.02,0.01 0.05,0.02 0.09,0.02 0.05,-0.11 0.03,-0.23 0.25,-0.63 0.11,-0.19 0.25,-0.34 0.42,-0.47 0.16,-0.13 0.36,-0.23 0.57,-0.32 0.17,-0.07 0.32,-0.12 0.5,-0.16 0.06,-0.01 0.13,-0.02 0.19,-0.04 0.01,-0.03 0.01,-0.05 0.02,-0.08 0.01,-0.03 0.02,-0.06 0.02,-0.09 -0.11,-0.01 -0.59,0.13 -0.72,0.18 -0.64,0.26 -1.03,0.59 -1.3,1.22 -0.01,0.04 -0.04,0.14 -0.06,0.16zm4.87 0.4l0.13 -0.02c-0.03,-0.14 -0.28,-0.39 -0.07,-0.39 -0.01,-0.14 -0.23,-0.49 -0.33,-0.62 -0.25,-0.32 -0.71,-0.64 -1.09,-0.79 -0.2,-0.08 -0.56,-0.17 -0.77,-0.17 0,0.03 0.01,0.06 0.02,0.09 0.02,0.04 0.01,0.08 0.05,0.09 0.03,0 0.08,0 0.11,0.01 0.49,0.08 0.79,0.22 1.18,0.51 0.3,0.24 0.52,0.5 0.66,0.88 0.04,0.11 0.1,0.28 0.11,0.41zm0.21 0.82c0.12,0.01 0.31,-0.01 0.36,0.21 0.02,0.09 0,0.46 0.01,0.52l0 0.02c0.01,0.02 0.07,-0.05 0.08,-0.07 0.1,-0.12 0.07,-0.26 0.07,-0.46l0 -0.7c-0.01,-0.14 -0.07,-0.22 -0.15,-0.28 -0.1,-0.08 -0.48,-0.42 -0.55,-0.42 -0.01,0.1 0.34,0.45 0.22,0.89 -0.06,0.23 -0.09,0.07 -0.04,0.29zm-5.27 -0.22c-0.11,-0.28 -0.01,-0.56 0.14,-0.78 0.02,-0.04 0.08,-0.11 0.08,-0.15 -0.07,-0.01 -0.15,0.08 -0.23,0.15 -0.08,0.06 -0.15,0.12 -0.22,0.18 -0.17,0.13 -0.31,0.19 -0.31,0.49l0 0.71c0,0.24 0.07,0.25 0.2,0.36l0 -0.3c0,-0.22 -0.02,-0.43 0.32,-0.44 0,-0.03 0.01,-0.08 0.02,-0.11 0.03,-0.06 0.03,-0.05 0,-0.11zm2.12 -0.71c0.1,-0.04 0.1,-0.03 0.24,-0.03l0.63 0c0.06,0 0.09,0.02 0.12,0.03 -0.01,-0.53 -0.07,-1.24 -0.19,-1.74 -0.03,-0.09 -0.05,-0.14 -0.08,-0.21l-0.46 0c-0.19,0.19 -0.24,1.62 -0.26,1.95zm1.48 2.49c0.12,0.03 0.45,0.01 0.59,0.01 0.19,0 0.37,-0.01 0.5,-0.09 0.26,-0.16 0.34,-0.44 0.34,-0.84 0,-0.39 -0.09,-0.69 -0.34,-0.83 -0.23,-0.13 -0.76,-0.09 -1.09,-0.09 0.01,0.03 0.07,0.04 0.1,0.06 0.03,0.02 0.07,0.05 0.1,0.07 0.19,0.18 0.24,0.51 0.24,0.79 0,0.32 -0.06,0.69 -0.33,0.86 -0.03,0.02 -0.09,0.04 -0.11,0.06zm-2.73 -1.84c-0.18,0.03 -0.36,0.04 -0.5,0.21 -0.23,0.29 -0.24,0.85 -0.14,1.18 0.16,0.49 0.57,0.46 0.97,0.46l1.42 0c0.22,0 0.44,0 0.67,-0.01 0.46,-0.02 0.64,-0.26 0.69,-0.71 0.03,-0.27 0.01,-0.67 -0.15,-0.88 -0.06,-0.08 -0.11,-0.12 -0.2,-0.17 -0.16,-0.09 -0.41,-0.08 -0.63,-0.08l-1.43 0c-0.11,0 -0.64,-0.01 -0.7,0zm0.04 -0.11c-0.08,0.01 -0.13,0 -0.21,0.02 -0.16,0.03 -0.33,0.12 -0.42,0.25 -0.03,0.05 -0.05,0.08 -0.08,0.14 -0.17,0.36 -0.14,1 0.03,1.32 0.12,0.21 0.32,0.31 0.57,0.33 0.1,0.02 1.63,0.01 1.78,0.01 0.59,0 1.2,0 1.76,0 0.63,0 0.79,-0.43 0.82,-0.97 0.01,-0.28 -0.04,-0.57 -0.14,-0.76 -0.11,-0.19 -0.29,-0.31 -0.57,-0.34 -0.12,-0.01 -0.71,0 -0.88,0 -0.23,0 -2.56,-0.01 -2.66,0zm-0.95 0.98c0,0.45 0.04,1.11 0.5,1.26 0.16,0.06 0.3,0.05 0.5,0.05l3.48 0c0.43,0 0.62,-0.15 0.74,-0.47 0.15,-0.4 0.22,-1.66 -0.28,-1.94 -0.15,-0.09 -0.29,-0.1 -0.5,-0.1l-3.59 0c-0.36,0 -0.54,0.09 -0.68,0.34 -0.12,0.2 -0.17,0.56 -0.17,0.86zm-12.52 8.06l0.19 0c0,-0.03 0,-0.06 -0.01,-0.08 0,0 0,-0.01 0,-0.01 0,0 -0.01,0 -0.01,-0.01 -0.01,0 -0.03,0 -0.04,0 -0.01,-0.01 -0.03,-0.01 -0.05,-0.01 -0.01,0 -0.03,0 -0.04,0.01 -0.01,0 -0.01,0 -0.01,0 -0.01,0 -0.01,0 -0.01,0.01 0,0 -0.01,0 -0.01,0.01 0,0.01 0,0.02 0,0.03 -0.01,0.02 -0.01,0.03 -0.01,0.05l0 0zm-0.14 0.4c0,0.07 0.03,0.13 0.07,0.17 0.05,0.05 0.11,0.07 0.18,0.07 0.07,0 0.13,-0.02 0.17,-0.07 0.04,-0.04 0.07,-0.1 0.07,-0.17l0 -0.13 -0.49 0 0 0.13zm-2.15 1.58c-0.12,0 -0.24,0 -0.42,0l-0.02 0c-0.1,0 -0.17,0 -0.23,0.02 -0.04,0 -0.07,0.02 -0.11,0.03 -0.03,0.02 -0.06,0.04 -0.09,0.06 -0.03,0.02 -0.05,0.05 -0.07,0.08 -0.03,0.02 -0.05,0.06 -0.07,0.09 -0.01,0.01 -0.01,0.02 -0.02,0.03l0.06 0c0.26,0 0.61,0 0.97,0 0.35,0 0.71,0 0.96,0l0.07 0c-0.01,-0.01 -0.02,-0.02 -0.03,-0.03 -0.02,-0.03 -0.04,-0.07 -0.06,-0.09 -0.02,-0.03 -0.05,-0.06 -0.07,-0.08 -0.03,-0.02 -0.06,-0.04 -0.1,-0.06 -0.03,-0.01 -0.07,-0.03 -0.1,-0.03 -0.07,-0.02 -0.14,-0.02 -0.23,-0.02l-0.02 0c-0.18,0 -0.3,0 -0.42,0zm0 -0.61c-0.11,0 -0.21,0 -0.33,-0.01l0 0.35c0.09,0 0.21,0 0.33,0 0.12,0 0.24,0 0.32,0l0 -0.35c-0.11,0.01 -0.22,0.01 -0.32,0.01zm0 -0.75l-0.99 0c0,0.04 0.01,0.08 0.01,0.11 0.01,0.02 0.02,0.05 0.03,0.07 0.01,0.02 0.02,0.04 0.04,0.07 0.02,0.03 0.05,0.05 0.07,0.08 0.02,0.02 0.05,0.04 0.07,0.06l0 0c0.02,0.02 0.04,0.03 0.06,0.04 0.02,0.01 0.05,0.02 0.08,0.02 0.03,0.01 0.07,0.01 0.11,0.02 0.05,0 0.1,0 0.14,0 0.1,0.01 0.24,0.01 0.38,0.01 0.14,0 0.28,0 0.37,-0.01 0.05,0 0.1,0 0.15,0 0.04,-0.01 0.07,-0.01 0.11,-0.02 0.03,0 0.05,-0.01 0.07,-0.02 0.03,-0.01 0.05,-0.02 0.07,-0.04l0 0c0.02,-0.02 0.04,-0.04 0.06,-0.06 0.03,-0.03 0.05,-0.05 0.07,-0.08 0.02,-0.03 0.04,-0.05 0.05,-0.07 0.01,-0.02 0.02,-0.05 0.02,-0.07 0.01,-0.03 0.01,-0.07 0.01,-0.11l-0.98 0zm-2.49 -0.62l0.19 0 0 0c0,-0.02 0,-0.03 0,-0.05 0,-0.01 0,-0.02 -0.01,-0.03 0,-0.01 0,-0.01 0,-0.01 -0.01,-0.01 -0.01,-0.01 -0.01,-0.01 0,0 -0.01,0 -0.02,0 -0.01,-0.01 -0.02,-0.01 -0.04,-0.01 -0.01,0 -0.03,0 -0.05,0.01 -0.01,0 -0.02,0 -0.03,0 -0.01,0.01 -0.01,0.01 -0.01,0.01 -0.01,0 -0.01,0.01 -0.01,0.01 0,0.02 -0.01,0.05 -0.01,0.08zm0.26 0.57c0.05,-0.04 0.07,-0.1 0.07,-0.17l0 -0.13 -0.49 0 0 0.13c0,0.07 0.03,0.13 0.07,0.17 0.05,0.05 0.11,0.07 0.18,0.07 0.07,0 0.13,-0.02 0.17,-0.07zm0.29 0.05c-0.02,0.05 -0.06,0.1 -0.1,0.14 -0.09,0.09 -0.22,0.15 -0.36,0.15 -0.14,0 -0.27,-0.06 -0.37,-0.15 -0.09,-0.09 -0.15,-0.22 -0.15,-0.36l0 -0.13 -0.82 0c-0.08,0 -0.14,-0.06 -0.14,-0.13 0,-0.08 0.06,-0.14 0.14,-0.14l0.99 0c0,-0.05 0,-0.1 0.01,-0.15 0.02,-0.06 0.04,-0.1 0.08,-0.13 0.03,-0.03 0.06,-0.05 0.1,-0.07 0.03,-0.01 0.07,-0.02 0.1,-0.02 0.03,0 0.05,-0.01 0.08,-0.01 0.03,0 0.06,0.01 0.09,0.01 0.03,0.01 0.07,0.02 0.1,0.03 0.03,0.02 0.06,0.05 0.08,0.07 0.02,0.03 0.04,0.06 0.06,0.1 0.01,0.03 0.01,0.06 0.02,0.09 0,0.02 0,0.05 0,0.07l0 0.01 0.96 0c0.08,0 0.14,0.06 0.14,0.14 0,0.07 -0.06,0.13 -0.14,0.13l-0.82 0 0 0.08 3.77 0 0 -0.08 -0.81 0c-0.08,0 -0.14,-0.06 -0.14,-0.13 0,-0.08 0.06,-0.14 0.14,-0.14l0.95 0 0 -0.01c0.01,-0.02 0.01,-0.05 0.01,-0.07 0,-0.03 0.01,-0.06 0.02,-0.09 0.01,-0.04 0.03,-0.07 0.05,-0.1 0.03,-0.02 0.05,-0.05 0.09,-0.07 0.03,-0.01 0.06,-0.02 0.1,-0.03 0.02,0 0.05,-0.01 0.08,-0.01 0.03,0 0.06,0.01 0.09,0.01 0.03,0 0.06,0.01 0.09,0.02 0.04,0.02 0.08,0.04 0.11,0.07 0.03,0.03 0.06,0.07 0.07,0.13 0.02,0.05 0.02,0.1 0.02,0.15l0.99 0c0.07,0 0.13,0.06 0.13,0.14 0,0.07 -0.06,0.13 -0.13,0.13l-0.83 0 0 0.13c0,0.14 -0.06,0.27 -0.15,0.36 -0.09,0.09 -0.22,0.15 -0.36,0.15 -0.14,0 -0.27,-0.06 -0.37,-0.15 -0.04,-0.04 -0.07,-0.09 -0.1,-0.14l-0.68 0c0,0.06 0,0.11 -0.02,0.16 -0.01,0.05 -0.02,0.1 -0.04,0.14 -0.02,0.04 -0.05,0.07 -0.07,0.11 -0.03,0.03 -0.06,0.07 -0.09,0.11 -0.03,0.03 -0.07,0.06 -0.1,0.08l0 0c-0.04,0.03 -0.08,0.05 -0.12,0.07 -0.04,0.02 -0.08,0.04 -0.13,0.05 -0.03,0 -0.06,0.01 -0.09,0.01l0 0.36c0.05,0.01 0.09,0.01 0.14,0.02 0.05,0.02 0.11,0.04 0.16,0.06 0.05,0.03 0.1,0.06 0.14,0.09 0.05,0.04 0.09,0.08 0.12,0.12 0.03,0.03 0.06,0.07 0.08,0.11 0.03,0.04 0.05,0.08 0.07,0.11 0.02,0.04 0.03,0.07 0.04,0.1 0.02,0.05 0.02,0.09 0.01,0.12 -0.01,0.07 -0.05,0.1 -0.1,0.12 -0.03,0 -0.05,0 -0.12,0 -0.04,0 -0.09,0 -0.17,0 -0.14,0 -0.55,0 -0.96,0 -0.41,0 -0.82,0 -0.97,0 -0.07,0 -0.13,0 -0.16,0 -0.07,0 -0.09,0 -0.12,0 -0.05,-0.02 -0.09,-0.05 -0.11,-0.12 -0.01,-0.03 0,-0.07 0.01,-0.12 0.01,-0.03 0.03,-0.06 0.05,-0.1 0.02,-0.03 0.04,-0.07 0.06,-0.11 0.03,-0.04 0.06,-0.08 0.09,-0.11 0.03,-0.04 0.07,-0.08 0.11,-0.12 0.05,-0.03 0.1,-0.06 0.15,-0.09 0.05,-0.02 0.1,-0.04 0.16,-0.06 0.04,-0.01 0.09,-0.01 0.13,-0.02l0 -0.36c-0.03,0 -0.06,-0.01 -0.09,-0.01 -0.04,-0.01 -0.08,-0.03 -0.13,-0.05 -0.04,-0.02 -0.08,-0.04 -0.11,-0.07l0 0c-0.04,-0.02 -0.07,-0.05 -0.1,-0.08 -0.04,-0.04 -0.07,-0.08 -0.09,-0.11 -0.03,-0.04 -0.05,-0.07 -0.07,-0.11 -0.02,-0.04 -0.04,-0.09 -0.05,-0.14 -0.01,-0.05 -0.01,-0.1 -0.02,-0.16l-0.68 0zm35.65 -2.28c0,0.19 0.15,0.33 0.32,0.35 0.14,0.01 0.35,0 0.5,0l0 1.05c0,0.19 -0.18,0.33 -0.35,0.36 -0.18,0.03 -0.34,0.01 -0.51,0.2 -0.1,0.11 -0.13,0.24 -0.15,0.38 0,0.07 -0.05,0.05 -0.13,0.05 -0.24,-0.01 -0.48,0 -0.72,0 0,-0.07 0.52,-0.87 0.58,-0.98 0.14,-0.23 0.12,-0.03 0.35,-0.03 0.08,0 0.15,-0.06 0.19,-0.11 0.05,-0.07 0.05,-0.17 0.01,-0.25 -0.02,-0.04 -0.26,-0.28 -0.31,-0.32 -0.06,-0.05 -0.15,-0.06 -0.23,-0.04 -0.16,0.05 -1.69,1.8 -1.69,1.8l0 1.4c0,0.14 0.04,0.25 0.08,0.35 0.05,0.08 0.12,0.19 0.19,0.24 0.05,0.04 0.06,0.06 0.12,0.09 0.16,0.1 0.31,0.14 0.52,0.14 0.42,0 0.83,-0.02 1.24,-0.02 0,0.2 -0.01,0.4 0.07,0.58 0.12,0.24 0.36,0.39 0.66,0.39l0.89 0c0,0.18 0,0.26 0.13,0.4 0.13,0.12 0.38,0.09 0.55,0.09 0.25,0 0.42,-0.15 0.42,-0.4 0,-0.22 0.04,-0.48 -0.1,-0.66 -0.14,-0.16 -0.46,-0.11 -0.65,-0.11 -0.11,0 -0.23,0.08 -0.28,0.15 -0.03,0.04 -0.06,0.11 -0.07,0.16 -0.03,0.24 0.21,0.18 -0.88,0.18 -0.3,0 -0.55,-0.19 -0.55,-0.5 0,-0.33 -0.05,-0.3 0.1,-0.38 0.04,-0.02 0.07,-0.04 0.11,-0.07 0.06,-0.05 0.13,-0.12 0.17,-0.19 0.11,-0.18 0.15,-0.36 0.15,-0.56l0 -0.4c0,-0.03 -0.03,-0.05 0.02,-0.05l0.49 0c0,0.25 -0.04,0.64 0.06,0.86 0.01,0.03 0.02,0.06 0.04,0.08 0.15,0.3 0.46,0.45 0.85,0.45l0.99 0c0.13,0 0.29,-0.02 0.39,-0.06 0.61,-0.26 0.54,-0.76 0.54,-1.33l0.89 0c0.44,0 0.6,-0.49 0.31,-0.78 -0.08,-0.08 -0.18,-0.12 -0.34,-0.12 -0.31,0 -0.62,0 -0.93,0 -0.32,-0.38 -1.52,-1.69 -1.6,-1.72 -0.12,-0.05 -0.21,-0.02 -0.29,0.07l-0.14 0.14c-0.08,0.07 -0.17,0.13 -0.17,0.26 0,0.14 0.12,0.24 0.26,0.24 0.29,0 0.08,-0.37 0.57,0.45 0.05,0.08 0.32,0.48 0.34,0.56l-3.01 0c0,-0.2 0.08,-0.32 0.22,-0.39 0.14,-0.07 0.35,-0.05 0.49,-0.13 0.12,-0.08 0.22,-0.19 0.27,-0.34 0.04,-0.13 0.02,-0.83 0.02,-1.06 0,-0.15 0.02,-0.12 0.35,-0.12 0.12,0 0.18,0.01 0.27,-0.04 0.21,-0.1 0.28,-0.43 0.08,-0.59 -0.04,-0.04 -0.14,-0.09 -0.22,-0.09l-1.12 0c-0.2,0 -0.36,0.17 -0.36,0.37zm-1.96 3.83c0,0.12 0.03,0.21 0.07,0.3 0.05,0.09 0.09,0.13 0.16,0.2 0.14,0.13 0.35,0.16 0.55,0.16 0.28,0 1.04,0.03 1.27,-0.04 0.22,-0.06 0.44,-0.32 0.44,-0.55l0 -1.33 -2.49 0 0 1.26zm0.16 0.02c0,0.27 0.24,0.48 0.51,0.48l1.14 0c0.22,0 0.43,-0.11 0.5,-0.32 0.06,-0.18 0.03,-1.03 0.03,-1.28l-2.18 0 0 1.12zm3.57 -0.93l0 0.88c0,0.21 0.13,0.34 0.34,0.34l1.12 0c0.11,0 0.18,-0.03 0.25,-0.08 0.06,-0.05 0.09,-0.14 0.09,-0.25l0 -0.89c-0.6,0 -1.2,0 -1.8,0zm-3.38 0.91c0,0.2 0.15,0.31 0.35,0.31l1.11 0c0.38,0 0.35,-0.34 0.35,-0.58 0,-0.3 -0.03,-0.35 0,-0.64l-0.67 0 -0.56 0.83c-0.04,0.07 -0.05,0.1 -0.13,0.1 -0.04,0 -0.08,-0.05 -0.08,-0.09 0,-0.04 0.1,-0.18 0.13,-0.22 0.05,-0.07 0.09,-0.13 0.14,-0.21l0.14 -0.2c0.05,-0.08 0.09,-0.14 0.14,-0.21l-0.28 0c-0.01,0.04 -0.16,0.26 -0.2,0.32 -0.02,0.02 -0.03,0.04 -0.05,0.07 -0.02,0.03 -0.02,0.05 -0.06,0.07 -0.07,0.04 -0.14,0 -0.14,-0.08 0,-0.06 0.21,-0.31 0.23,-0.38l-0.42 0 0 0.91zm3.03 -1.26l0 1.21c0,0.35 0.18,0.57 0.44,0.67 0.18,0.07 1.06,0.05 1.39,0.04 0.39,-0.01 0.67,-0.29 0.67,-0.66 0,-0.18 0,-0.37 0,-0.55 -0.11,-0.03 -0.12,-0.05 -0.16,-0.06 0,0.23 0.03,0.61 -0.03,0.78 -0.03,0.09 -0.1,0.19 -0.17,0.24 -0.09,0.06 -0.19,0.09 -0.33,0.09l-1.12 0c-0.15,0 -0.26,-0.04 -0.35,-0.12 -0.23,-0.17 -0.18,-0.48 -0.18,-0.76l0 -0.72 1.97 0c0.04,0 0.05,-0.06 0.1,-0.16 -0.74,0 -1.49,0 -2.23,0zm-3.24 -0.18l0.56 0c0.02,-0.09 0.6,-1.05 0.72,-1.19 0.07,-0.08 0.2,-0.12 0.31,-0.06 0.04,0.03 0.05,0.06 0.1,0.06 0.06,0 0.07,-0.06 0.05,-0.1 -0.03,-0.04 -0.24,-0.24 -0.29,-0.27 -0.22,0.12 -1.45,1.56 -1.45,1.56zm3.85 -1.25c0.08,0.15 0.11,-0.03 0.28,-0.03 0.17,0 0.23,0.15 0.3,0.25 0.12,0.21 0.59,0.91 0.62,1.03l0.55 0c-0.01,-0.07 -1.12,-1.25 -1.24,-1.36 -0.22,-0.22 -0.15,-0.27 -0.37,-0.05 -0.06,0.05 -0.11,0.09 -0.14,0.16zm-0.21 4.19l0 0.41c0,0.09 0.07,0.19 0.16,0.19l0.41 0c0.19,0 0.16,-0.32 0.16,-0.43 0,-0.43 -0.07,-0.37 -0.56,-0.37 -0.05,0 -0.1,0.04 -0.12,0.07 -0.03,0.03 -0.05,0.07 -0.05,0.13zm-1.46 -5.17l1.12 0c0.2,0 0.22,-0.35 -0.03,-0.35l-1.07 0c-0.25,0 -0.25,0.35 -0.02,0.35zm0.37 2.94l0.51 0 0 -0.53 -0.51 0 0 0.53zm3.05 -0.35l1.46 0c-0.02,-0.1 -0.12,-0.18 -0.23,-0.18l-1 0c-0.1,0 -0.22,0.08 -0.23,0.18zm0.24 0.35l0.96 0c0.13,0 0.24,-0.07 0.26,-0.17l-1.46 0c0.01,0.09 0.14,0.17 0.24,0.17zm-5.24 18.55l0.17 0 0 2.75c0.01,0 0.02,0 0.03,0l0.91 -1.18c-0.01,-0.03 -0.02,-0.05 -0.02,-0.08 0,-0.09 0.08,-0.17 0.17,-0.17 0.1,0 0.18,0.08 0.18,0.17 0,0.02 -0.01,0.04 -0.01,0.06l0.45 0.5c0.02,0 0.03,-0.01 0.04,-0.01 0.02,0 0.03,0 0.04,0.01l0.75 -0.95c-0.01,-0.02 -0.01,-0.04 -0.01,-0.06 0,-0.1 0.08,-0.18 0.17,-0.18 0.1,0 0.18,0.08 0.18,0.18 0,0 0,0.01 0,0.02l0.53 0.38c0.02,-0.01 0.05,-0.02 0.07,-0.02 0.02,0 0.03,0.01 0.04,0.01l0.7 -0.79 0.12 0.1 -0.69 0.8c0,0.02 0.01,0.04 0.01,0.06 0,0.09 -0.08,0.17 -0.18,0.17 -0.09,0 -0.17,-0.08 -0.17,-0.17 0,-0.01 0,-0.02 0,-0.03l-0.53 -0.38c-0.02,0.01 -0.05,0.02 -0.08,0.02 -0.01,0 -0.02,0 -0.03,0l-0.76 0.94c0.01,0.02 0.02,0.04 0.02,0.07 0,0.09 -0.08,0.17 -0.18,0.17 -0.09,0 -0.17,-0.08 -0.17,-0.17 0,-0.02 0,-0.04 0.01,-0.06l-0.45 -0.5c-0.02,0.01 -0.03,0.01 -0.05,0.01 -0.01,0 -0.01,0 -0.02,0l-0.91 1.18c0.01,0.02 0.01,0.05 0.01,0.07l5.09 0 0 0.18 -5.26 0 -0.17 0 0 -0.18 0 -2.92zm-0.27 -0.32l5.86 0 0 3.69 -5.86 0 0 -3.69zm-0.22 -0.2l6.3 0 0 4.22 -2.3 0 0 0.62 0.64 0 0 0.21 -2.87 0 0 -0.21 0.58 0 0 -0.62 -2.35 0 0 -4.22zm-12.52 12.23l1.43 0 0 2.35 -1.43 0 0 -2.35zm0.04 -0.21l1.34 0c0.12,0 0.22,0.1 0.22,0.22l0 2.46c0,0.13 -0.1,0.23 -0.22,0.23l-1.34 0c-0.12,0 -0.22,-0.1 -0.22,-0.23l0 -2.46c0,-0.12 0.1,-0.22 0.22,-0.22zm0.52 0.06l0.3 0c0.02,0 0.03,0.02 0.03,0.03l0 0.02c0,0.02 -0.01,0.03 -0.03,0.03l-0.3 0c-0.02,0 -0.03,-0.01 -0.03,-0.03l0 -0.02c0,-0.01 0.01,-0.03 0.03,-0.03zm-0.39 2.61l1.08 0c0.02,0 0.03,0.02 0.03,0.03l0 0.02c0,0.02 -0.01,0.03 -0.03,0.03l-1.08 0c-0.02,0 -0.03,-0.01 -0.03,-0.03l0 -0.02c0,-0.01 0.01,-0.03 0.03,-0.03zm0.14 -0.99c0.02,0.03 0.07,0.1 0.13,0.17 0.06,0.07 0.14,0.14 0.19,0.17 0.05,0.02 0.07,0.01 0.09,-0.03 0.02,-0.04 0.04,-0.11 0.02,-0.19 -0.01,-0.07 -0.06,-0.15 -0.12,-0.22 -0.06,-0.06 -0.15,-0.11 -0.23,-0.16 -0.08,-0.05 -0.16,-0.1 -0.21,-0.12 -0.05,-0.03 -0.06,-0.03 -0.06,0 0,0.03 0,0.1 0.01,0.19 0,0.09 0.01,0.2 0.04,0.29 0.03,0.09 0.08,0.16 0.13,0.22 0.05,0.05 0.11,0.09 0.16,0.11 0.05,0.01 0.09,0 0.11,-0.01 0.03,-0.01 0.04,-0.02 0.02,-0.05 -0.03,-0.03 -0.08,-0.07 -0.12,-0.12 -0.05,-0.05 -0.1,-0.1 -0.13,-0.14 -0.03,-0.05 -0.04,-0.08 -0.05,-0.11 0,-0.02 -0.01,-0.03 0.02,0zm0.31 -0.14c0.03,0.03 0.06,0.06 0.09,0.1 0.02,0.03 0.04,0.08 0.05,0.12 0.01,0.04 0.01,0.08 0.01,0.12 0.05,-0.04 0.1,-0.09 0.14,-0.14 0.07,-0.08 0.13,-0.16 0.16,-0.19 0.02,-0.04 0.02,-0.02 0.01,0 -0.01,0.03 -0.02,0.08 -0.06,0.13 -0.03,0.05 -0.08,0.11 -0.14,0.16 -0.06,0.06 -0.11,0.11 -0.14,0.14 -0.02,0.03 -0.01,0.05 0.01,0.06 0.03,0.01 0.08,0.02 0.14,0.01 0.06,-0.02 0.12,-0.06 0.19,-0.13 0.06,-0.06 0.11,-0.14 0.15,-0.25 0.03,-0.11 0.04,-0.24 0.04,-0.34 0.01,-0.11 0.02,-0.19 0.01,-0.22 0,-0.04 -0.01,-0.03 -0.07,0 -0.05,0.03 -0.15,0.08 -0.24,0.14 -0.1,0.06 -0.19,0.11 -0.27,0.19 -0.03,0.03 -0.06,0.07 -0.08,0.1zm-2.97 -0.28l0.38 0 0 0.2 -0.38 0 0 -0.2zm-0.42 0l0.38 0 0 0.2 -0.38 0 0 -0.2zm-0.43 0l0.38 0 0 0.2 -0.38 0 0 -0.2zm1.68 -0.32l0.39 0 0 0.21 -0.39 0 0 -0.21zm-0.42 0l0.39 0 0 0.21 -0.39 0 0 -0.21zm-0.41 0l0.38 0 0 0.21 -0.38 0 0 -0.21zm-0.42 0l0.38 0 0 0.21 -0.38 0 0 -0.21zm-0.43 0l0.38 0 0 0.21 -0.38 0 0 -0.21zm0.85 -0.32l0.38 0 0 0.2 -0.38 0 0 -0.2zm-0.42 0l0.38 0 0 0.2 -0.38 0 0 -0.2zm-0.43 0l0.38 0 0 0.2 -0.38 0 0 -0.2zm1.68 -0.32l0.39 0 0 0.21 -0.39 0 0 -0.21zm-0.42 0l0.39 0 0 0.21 -0.39 0 0 -0.21zm-0.41 0l0.38 0 0 0.21 -0.38 0 0 -0.21zm-0.42 0l0.38 0 0 0.21 -0.38 0 0 -0.21zm-0.43 0l0.38 0 0 0.21 -0.38 0 0 -0.21zm-0.95 0.57c0.03,0.03 0.07,0.06 0.09,0.09 0.02,0.04 0.04,0.08 0.05,0.12 0.01,0.04 0.01,0.08 0.01,0.12 0.05,-0.04 0.1,-0.08 0.14,-0.13 0.07,-0.08 0.13,-0.16 0.16,-0.2 0.03,-0.03 0.02,-0.02 0.01,0.01 -0.01,0.02 -0.02,0.07 -0.06,0.12 -0.03,0.05 -0.08,0.11 -0.14,0.16 -0.05,0.06 -0.11,0.11 -0.14,0.14 -0.02,0.04 -0.01,0.05 0.01,0.06 0.03,0.01 0.08,0.03 0.14,0.01 0.06,-0.02 0.12,-0.06 0.19,-0.12 0.06,-0.07 0.11,-0.15 0.15,-0.26 0.03,-0.1 0.04,-0.24 0.04,-0.34 0.01,-0.11 0.02,-0.18 0.01,-0.22 0,-0.04 -0.01,-0.03 -0.07,0 -0.05,0.03 -0.15,0.09 -0.24,0.14 -0.1,0.06 -0.19,0.11 -0.27,0.19 -0.03,0.03 -0.06,0.07 -0.08,0.11zm-0.31 0.13c0.02,0.03 0.07,0.1 0.13,0.17 0.06,0.07 0.14,0.14 0.19,0.17 0.05,0.03 0.07,0.01 0.09,-0.03 0.02,-0.04 0.04,-0.11 0.02,-0.18 -0.01,-0.08 -0.06,-0.16 -0.12,-0.23 -0.06,-0.06 -0.14,-0.11 -0.23,-0.16 -0.08,-0.04 -0.16,-0.09 -0.21,-0.12 -0.05,-0.03 -0.06,-0.03 -0.06,0 0,0.03 0,0.1 0.01,0.19 0,0.09 0.01,0.2 0.04,0.3 0.03,0.09 0.08,0.16 0.13,0.21 0.05,0.06 0.11,0.1 0.16,0.11 0.05,0.01 0.09,0 0.12,-0.01 0.02,-0.01 0.03,-0.02 0.01,-0.05 -0.03,-0.03 -0.08,-0.07 -0.12,-0.12 -0.05,-0.05 -0.1,-0.1 -0.13,-0.14 -0.02,-0.04 -0.04,-0.08 -0.05,-0.11 0,-0.02 -0.01,-0.03 0.02,0zm2.5 -2.38c-0.02,0.05 -0.06,0.08 -0.12,0.08 -0.06,0 -0.12,-0.08 -0.12,-0.13 0,-0.05 0.01,-0.05 0.02,-0.07 0.05,-0.09 0.13,-0.17 0.22,-0.22 0.1,-0.06 0.2,-0.09 0.32,-0.09 0.11,0 0.22,0.03 0.31,0.08 0.09,0.06 0.17,0.13 0.23,0.23 0.01,0.02 0.02,0.02 0.02,0.07 0,0.05 -0.07,0.12 -0.13,0.12 -0.06,0 -0.09,-0.03 -0.11,-0.07 -0.03,-0.05 -0.08,-0.1 -0.13,-0.13 -0.06,-0.03 -0.12,-0.05 -0.19,-0.05 -0.07,0 -0.13,0.02 -0.19,0.05 -0.05,0.03 -0.1,0.08 -0.13,0.13zm-0.33 -0.31c-0.02,0.04 -0.05,0.06 -0.11,0.06 -0.06,0 -0.12,-0.07 -0.12,-0.13 0,-0.05 0.01,-0.06 0.03,-0.08 0.1,-0.13 0.22,-0.23 0.37,-0.31 0.14,-0.07 0.31,-0.11 0.48,-0.11 0.17,0 0.33,0.04 0.48,0.11 0.14,0.07 0.27,0.18 0.37,0.3 0.02,0.03 0.03,0.04 0.03,0.09 0,0.05 -0.07,0.13 -0.13,0.13 -0.05,0 -0.08,-0.03 -0.1,-0.06 -0.08,-0.1 -0.18,-0.18 -0.29,-0.23 -0.11,-0.06 -0.23,-0.09 -0.36,-0.09 -0.13,0 -0.26,0.03 -0.37,0.09 -0.11,0.05 -0.21,0.13 -0.28,0.23zm0.65 0.36c0.08,0 0.14,0.07 0.14,0.14 0,0.08 -0.06,0.14 -0.14,0.14 -0.08,0 -0.14,-0.06 -0.14,-0.14 0,-0.07 0.06,-0.14 0.14,-0.14zm-3.48 0.73l4.39 0 0 2.84 -4.39 0 0 -2.84zm-0.16 -0.15l4.71 0 0 3.24 -1.72 0 0 0.48 0.48 0 0 0.15 -2.15 0 0 -0.15 0.43 0 0 -0.48 -1.75 0 0 -3.24z"/>
  <path class="fil1 str1" d="M9.48 49.35l-0.15 -0.01c0.01,0.07 -0.01,0.14 0.08,0.14 0.08,0 0.06,-0.07 0.07,-0.13zm-0.46 0l-0.15 -0.01c0,0.07 -0.01,0.14 0.07,0.14 0.09,0 0.06,-0.07 0.08,-0.13zm1.24 -0.87l0.05 0 0.01 0 0.09 0c-0.02,-0.07 0.01,-0.14 -0.07,-0.14 -0.09,-0.01 -0.08,0.07 -0.08,0.14zm-1.16 -0.01l0.1 0.01 0.05 0c0,-0.07 0.01,-0.14 -0.08,-0.14 -0.09,0 -0.05,0.07 -0.07,0.13zm0.24 0.01l0.14 0c-0.01,-0.07 0.01,-0.14 -0.07,-0.14 -0.09,-0.01 -0.07,0.07 -0.07,0.14zm0.83 0.86l-0.14 0c0,0.07 -0.01,0.14 0.07,0.14 0.08,0 0.07,-0.07 0.07,-0.14zm-0.6 -0.86l0.03 0 0.11 0c-0.01,-0.07 0.01,-0.14 -0.06,-0.14 -0.09,-0.01 -0.08,0.07 -0.08,0.14zm1.3 0.86l-0.15 0c0.01,0.07 -0.01,0.14 0.07,0.14 0.09,0 0.07,-0.07 0.08,-0.14zm0.46 0l-0.14 0c0,0.07 -0.01,0.14 0.07,0.14 0.08,0 0.07,-0.07 0.07,-0.14zm-0.23 0l-0.14 0c0,0.07 -0.01,0.14 0.07,0.14 0.08,0 0.07,-0.07 0.07,-0.14zm0.09 -0.86l0.14 0c0,-0.07 0.01,-0.14 -0.07,-0.14 -0.08,0 -0.07,0.07 -0.07,0.14zm-0.47 0l0.15 0c0,-0.07 0.01,-0.14 -0.08,-0.14 -0.07,0 -0.07,0.07 -0.07,0.14zm-0.69 0l0.14 0c0,-0.07 0.01,-0.14 -0.07,-0.14 -0.08,0 -0.07,0.07 -0.07,0.14zm0.46 0l0.14 0 0 -0.01c0,-0.07 0.01,-0.13 -0.07,-0.13 -0.08,0 -0.07,0.07 -0.07,0.14zm-0.69 0l0.14 0 0 -0.04 0 -0.01c0,-0.06 -0.01,-0.1 -0.09,-0.09 -0.06,0.01 -0.05,0.07 -0.05,0.14zm-1.16 0l0.11 0 0.04 0c-0.01,-0.07 0,-0.14 -0.07,-0.14 -0.09,-0.01 -0.08,0.07 -0.08,0.14zm1.3 0.86l-0.14 0c0,0.07 -0.01,0.14 0.07,0.14 0.08,0 0.07,-0.07 0.07,-0.14zm-0.69 0l-0.15 0c0,0.07 -0.01,0.14 0.07,0.14 0.09,0 0.08,-0.07 0.08,-0.14zm1.38 0l-0.14 0c0,0.07 -0.01,0.14 0.07,0.14 0.08,0 0.08,-0.07 0.07,-0.14zm-1.85 0.01l-0.01 0c0,0 -0.01,-0.01 -0.01,-0.01 0,0 0,0 -0.01,0l-0.11 0c0,0.08 -0.01,0.14 0.07,0.14 0.07,0 0.08,-0.07 0.07,-0.13zm1.62 -0.01l-0.14 0c0,0.07 -0.01,0.14 0.07,0.14 0.08,0 0.07,-0.07 0.07,-0.14zm-1.53 -0.86l0.07 0 0.08 0c-0.01,-0.07 0.01,-0.14 -0.08,-0.14 -0.08,0 -0.07,0.07 -0.07,0.14zm-0.55 0.86l-0.14 0c0,0.07 -0.01,0.14 0.07,0.14 0.08,0 0.07,-0.07 0.07,-0.14zm2.64 -0.91l0 0.05 0.14 0c0,-0.06 0.01,-0.13 -0.05,-0.14 -0.08,-0.02 -0.09,0.03 -0.09,0.09zm-1.25 0.91l-0.14 0c0,0.07 -0.01,0.14 0.07,0.14 0.08,0 0.07,-0.07 0.07,-0.14zm-1.53 -0.86l0.14 0c0,-0.07 0.01,-0.14 -0.07,-0.14 -0.09,0 -0.07,0.07 -0.07,0.14zm0.23 0l0.14 0c0,-0.07 0.01,-0.14 -0.07,-0.14 -0.08,0 -0.07,0.07 -0.07,0.14zm0.14 0.86l-0.14 0c0,0.07 -0.01,0.14 0.07,0.14 0.08,0 0.07,-0.07 0.07,-0.14zm2.87 -0.3l0 -0.28c-0.09,-0.02 -0.17,0.07 -0.17,0.16 0.01,0.11 0.17,0.2 0.17,0.12zm-3.5 -2.03l0.4 0 0 -0.13 -0.39 0.01 -0.01 0.12zm1.48 -0.14l-0.13 0.01c-0.01,0.04 0,0.09 0,0.13l0.13 0c0.01,0.03 0,0.09 0.01,0.13l0.12 0 0 -0.1c0.01,0 -0.01,0 0.01,-0.03l0.12 0 0 -0.13 -0.13 0 0 -0.14 -0.12 0 -0.01 0.13zm-3.69 0.94l0 1.04c0,0.23 0.3,0.22 0.3,0l-0.01 -1.04c0.01,-0.09 0.02,-0.24 -0.14,-0.24 -0.17,0 -0.15,0.15 -0.15,0.24zm3.72 -1.28c-0.14,0.02 -0.23,0.07 -0.31,0.14 -0.04,0.04 -0.18,0.21 -0.18,0.28 0,0.08 0.22,0.39 0.5,0.41 0.48,0.04 0.64,-0.48 0.34,-0.73 -0.07,-0.07 -0.21,-0.13 -0.35,-0.1zm-1.42 0c-0.29,0.06 -0.41,0.32 -0.33,0.56 0.11,0.35 0.58,0.37 0.87,0.04 0.03,-0.04 0.06,-0.08 0.1,-0.13 0.02,-0.04 0.02,-0.04 0.01,-0.08 -0.01,-0.02 -0.03,-0.05 -0.05,-0.07 -0.09,-0.15 -0.32,-0.38 -0.6,-0.32zm-2.53 2.89l0 0.39c0,0.13 0.06,0.14 0.19,0.14l0.73 0c0.44,0 0.38,0.07 0.38,-0.55 0,-0.06 0.01,-0.18 -0.02,-0.23 -0.04,-0.08 -0.16,-0.06 -0.28,-0.06 -0.16,0 -0.88,-0.01 -0.92,0 -0.11,0.03 -0.08,0.19 -0.08,0.31zm-0.39 -2.53l0 0.45c0,0.17 0.12,0.14 0.27,0.14 0.11,0 1.07,0.01 1.12,-0.01 0.09,-0.03 0.06,-0.19 0.07,-0.33l0 -0.47c0,-0.28 0.01,-0.26 -0.34,-0.26l-0.96 0c-0.14,0 -0.16,0.03 -0.16,0.16 0,0.11 0,0.22 0,0.32zm2.93 1.95l0 0.29c0,0.15 0.02,0.12 0.31,0.12l3.06 0c0.07,0 0.09,-0.02 0.09,-0.09l0 -0.46c0,-0.15 -0.01,-0.13 -0.24,-0.13l-3.11 0c-0.13,0 -0.11,0.03 -0.11,0.27zm0.78 -1.65c0.02,0.02 0.04,0.06 0.06,0.08 0.49,0.6 1.3,0.28 1.29,-0.33 -0.01,-0.35 -0.26,-0.59 -0.56,-0.63 -0.3,-0.05 -0.56,0.11 -0.72,0.31 -0.03,0.03 -0.05,0.07 -0.07,0.09 -0.04,-0.03 -0.11,-0.18 -0.3,-0.3 -0.13,-0.07 -0.3,-0.14 -0.5,-0.11 -0.77,0.12 -0.77,1.18 -0.01,1.28 0.51,0.08 0.76,-0.35 0.81,-0.39zm-3.09 -1.22c0,0.13 -0.02,0.25 0.05,0.31 0.03,0.04 0.1,0.05 0.15,0.03 0.13,-0.05 0.09,-0.21 0.09,-0.39l0 -0.16c0,-0.01 0,-0.02 0.01,-0.03 0,-0.03 0.02,-0.03 0.04,-0.03 0.01,0 0.03,0 0.05,0 0.78,0.01 1.61,0 2.4,0l2.4 0c0.17,0 0.42,0 0.59,0 0.01,0.17 0,0.63 0,0.84 0,0.18 0.03,0.19 0.12,0.27 0.15,0.15 0.11,0.08 0.11,0.43l0 2.69c0,0.06 -0.05,0.08 -0.12,0.15 -0.04,0.05 -0.12,0.03 -0.24,0.03l-5.24 0c-0.04,0 -0.11,0.01 -0.14,-0.01 -0.03,-0.03 -0.05,-0.06 -0.11,-0.06 -0.2,-0.01 -0.2,0.27 -0.1,0.34 0.06,0.04 0.21,0.03 0.3,0.03l5.56 0c0.1,0 0.15,-0.07 0.23,-0.16 0.18,-0.18 0.16,-0.11 0.16,-0.4l0 -2.97c0,-0.1 -0.06,-0.13 -0.14,-0.22 -0.02,-0.02 -0.08,-0.07 -0.09,-0.1l0 -0.98c0,-0.2 -0.16,-0.17 -0.34,-0.17l-5.35 -0.01c-0.08,0 -0.16,0 -0.24,0.01 -0.07,0 -0.12,0.03 -0.14,0.09 -0.02,0.05 -0.01,0.4 -0.01,0.47z"/>
 </g>
</svg>
